# xmcd
#
# Track frame offsets: 
#        150
#        11866
#        23118
#        37070
#        50649
#        63324
#        75776
#        87630
#        100981
#        114220
#        125436
#        138151
#        152180
#        161708
#
# Disc length: 2312 seconds
#
# Revision: 0
# Processed by: cddbd v1.5.2PL0 Copyright (c) Steve Scherf et al.
# Submitted via: ExactAudioCopy v0.95b4
#
DISCID=b209060e
DTITLE=King Curtis - Azure
DYEAR=1960
DGENRE=Rock and Roll
TTITLE0=Close Your Eyes
TTITLE1=Unchained Melody
TTITLE2=Off Shore
TTITLE3=Nearness Of You
TTITLE4=Misty
TTITLE5=Stranger
TTITLE6=When I Fall In Love
TTITLE7=It Ain't Necessarily So
TTITLE8=Our Love Is Here To Stay
TTITLE9=My Love Is Your Love
TTITLE10=Sweet And Lovely
TTITLE11=Azure
TTITLE12=The Lone Prairie
TTITLE13=Jay Walk
EXTD=
EXTT0=
EXTT1=
EXTT2=
EXTT3=
EXTT4=
EXTT5=
EXTT6=
EXTT7=
EXTT8=
EXTT9=
EXTT10=
EXTT11=
EXTT12=
EXTT13=
PLAYORDER=
